<?xml version="1.0" encoding="utf-8"?>
<!-- Generator: Adobe Illustrator 22.1.0, SVG Export Plug-In . SVG Version: 6.00 Build 0)  -->
<svg version="1.1" id="图层_1" xmlns="http://www.w3.org/2000/svg" xmlns:xlink="http://www.w3.org/1999/xlink" x="0px" y="0px"
	 viewBox="0 0 100 100" style="enable-background:new 0 0 100 100;" xml:space="preserve">
<style type="text/css">
	.st0{fill:#999999;}
	.st1{fill:#FFFFFF;}
	.st2{opacity:0.4;fill:#999999;}
	.st3{fill:#FAFAFA;}
</style>
<path class="st0" d="M24.8,90.5c0.1-0.3,0.5-0.4,0.9-0.2l3.5,1.3c0.4,0.1,0.6,0.5,0.5,0.7l0,0c-0.1,0.3-0.5,0.4-0.9,0.2l-3.5-1.3
	C24.9,91.1,24.7,90.8,24.8,90.5L24.8,90.5z"/>
<path class="st0" d="M25.6,85.3c0.2-0.2,0.7-0.1,1.1,0.2l4.2,3.1c0.4,0.3,0.7,0.8,0.5,1l0,0c-0.2,0.2-0.7,0.1-1.1-0.2l-4.2-3.1
	C25.7,86,25.5,85.6,25.6,85.3L25.6,85.3z"/>
<g>
	<path class="st1" d="M84.7,33.3C86.5,19.2,74.8,6,58.4,3.8s-31.1,7.6-33,21.8c-1.7,12.7,11.3,28.5,22.1,32.8
		c-0.2,0-0.4-0.1-0.5,0.1c-5.2,4.3-12.7,3.5-14.9-1.6c-2-4.6-3.1-1.1-3.1-1.1s-4.6-2.4-5.7,1.1c-2.3,7.5,19.8,9.2,22.2,8.3l2.6,21.9
		c0,0-7.1,1.6-8.1,2.8c-1,1.2-0.2,2.6,0.2,2.7c0.4,0.2-1.2,1.1-0.3,2.1c0.9,0.9,5.8-1.2,8.6-2.2c2.8-1,3-2.4,3-2.4
		s-0.2-11.1,6.1-9.9c3.7,0.7,7.2,9.7,7.2,9.7s-4.7,1.4-3.4,4c0.7,1.5,2.1,1,2.1,1s-0.2,1.9,2.4,1.6c1.4-0.2,7.7-3.3,7.4-4.8
		c-0.6-2.9-4.1-5-4.1-5l-8.5-21c0,0,10-3.8,12.7,5.2c0.2,0.6-1.2,1-0.8,1.7c0.4,0.6,1.6,0.3,1.6,0.3s0.6,2.1,1.3,2.6
		c1.9,1.6,6.7-0.4,0.2-10.2c-3.4-5.2-16.7-6.1-20.2-5.8c-0.1,0-0.2-0.1-0.4-0.1C66.7,58.2,83,46.1,84.7,33.3z"/>
	<path class="st0" d="M65.2,97.1c-0.7,0-1.3-0.2-1.7-0.6c-0.3-0.3-0.5-0.7-0.5-1c-0.7,0-1.5-0.2-2.1-1.3c-0.3-0.7-0.4-1.4-0.1-2
		c0.6-1.3,2.4-2.2,3.3-2.5c-1.1-2.7-4-8.4-6.6-8.9c-1.2-0.2-2.1,0-2.9,0.7c-2.7,2.3-2.6,8.7-2.6,8.7c0,0.3-0.3,1.8-3.3,2.9
		c-0.5,0.2-1.1,0.4-1.7,0.6c-3.9,1.4-6.5,2.3-7.4,1.4c-0.9-0.9-0.3-1.8,0-2.2c-0.2-0.2-0.4-0.6-0.6-1c-0.2-0.8,0-1.6,0.5-2.2
		c1-1.2,6.1-2.5,8-2.9l-2.4-21c-3.5,0.5-16.7-0.7-21-4.7c-1.3-1.3-1.8-2.7-1.3-4.3c0.3-1,0.9-1.7,1.7-2c1.5-0.6,3.3,0,4.1,0.4
		c0.2-0.5,0.7-1.1,1.4-1.1c0,0,0,0,0.1,0c0.8,0,1.6,0.9,2.4,2.7c0.8,1.9,2.5,3.3,4.7,3.8c2.9,0.7,6.3-0.1,9-2.1
		c-11.1-5.1-22.9-20.7-21.3-32.8C26.8,11.1,41.8,1.2,58.5,3.3C75.1,5.5,87.1,19,85.2,33.4l0,0c-1.5,11.3-14.5,22.4-26,25.7
		c5.4,0.3,14,1.8,16.8,6c4.9,7.4,3.3,10.1,2.4,10.9c-0.9,0.8-2.3,0.8-3.3,0c-0.6-0.5-1-1.7-1.3-2.4c-0.5,0-1.3,0-1.7-0.6
		c-0.4-0.7,0.2-1.2,0.5-1.5c0.1-0.1,0.3-0.3,0.3-0.3c-0.7-2.3-2-4-3.8-4.8c-2.9-1.4-6.5-0.6-7.8-0.2l8.3,20.3
		c0.7,0.5,3.6,2.5,4.1,5.3c0.1,0.4,0,0.7-0.3,1.1c-1.3,1.8-6.3,4.1-7.5,4.3C65.6,97.1,65.4,97.1,65.2,97.1z M64,94.2L63.9,95
		c0,0,0,0.5,0.3,0.8c0.3,0.3,0.8,0.4,1.5,0.3c1.1-0.1,5.8-2.4,6.8-3.9c0.1-0.2,0.2-0.3,0.2-0.4c-0.5-2.6-3.8-4.7-3.8-4.7L68.8,87
		l-0.1-0.2L60,65.4l0.5-0.2c0.2-0.1,5-1.9,9,0.1c2.1,1,3.6,2.9,4.4,5.5c0.2,0.6-0.3,1-0.6,1.3c-0.1,0.1-0.3,0.3-0.3,0.3
		c0.1,0.1,0.7,0.1,1,0l0.5-0.1l0.1,0.5c0.2,0.8,0.7,2.1,1.1,2.4c0.5,0.4,1.4,0.6,2,0c1.2-1,1.1-4.1-2.6-9.6
		c-3.1-4.7-15.5-5.9-19.8-5.6c-0.2,0-0.4-0.1-0.5-0.1l-2.1-0.7l2.1-0.3c11.8-1.3,27.7-13.3,29.3-25.6c1.8-13.9-9.8-26.9-25.9-29
		c-16.1-2.1-30.6,7.5-32.4,21.4c-1.3,10.1,8.5,27,21.8,32.2l2,0.8l-2.2,0.2c-0.1,0-0.2,0-0.2,0c0,0,0,0-0.1,0
		c-3,2.4-6.9,3.4-10.2,2.6c-2.5-0.6-4.4-2.2-5.4-4.4c-0.9-2-1.4-2.1-1.5-2.1c-0.2,0-0.6,0.5-0.7,0.9l-0.2,0.6l-0.5-0.3
		c0,0-2.3-1.2-3.8-0.6c-0.6,0.2-0.9,0.7-1.2,1.4c-0.4,1.2,0,2.3,1,3.3c4.3,4.1,18.7,5.1,20.6,4.4l0.6-0.2l2.7,23l-0.4,0.1
		c-2.7,0.6-7.2,1.9-7.9,2.7c-0.3,0.4-0.4,0.8-0.4,1.2c0.1,0.4,0.3,0.7,0.4,0.8c0.2,0.1,0.3,0.2,0.4,0.4c0.1,0.3-0.1,0.6-0.3,0.8
		c-0.4,0.5-0.4,0.7-0.2,1c0.6,0.5,4.5-1,6.3-1.7c0.6-0.2,1.2-0.5,1.7-0.6c2.4-0.8,2.6-2,2.6-2c0-0.2-0.1-6.8,2.9-9.4
		c1-0.9,2.3-1.2,3.8-0.9c3.9,0.7,7.4,9.6,7.5,10l0.2,0.5l-0.5,0.2c-0.7,0.2-2.7,1-3.2,2.1c-0.2,0.4-0.1,0.8,0.1,1.2
		c0.5,1.1,1.4,0.8,1.5,0.7L64,94.2z"/>
</g>
<g>
	<g>
		<ellipse transform="matrix(0.8957 -0.4447 0.4447 0.8957 -11.7872 19.4646)" class="st1" cx="35.6" cy="34.9" rx="6.9" ry="9.8"/>
		<path class="st0" d="M37.7,44.7c-3.2,0-6.8-2.5-8.7-6.5l0,0c-2.5-5.1-1.6-10.7,2.1-12.5c3.7-1.8,8.7,0.8,11.2,5.9
			c2.5,5.1,1.6,10.7-2.1,12.5C39.4,44.5,38.6,44.7,37.7,44.7z M29.8,37.7c2.3,4.6,6.7,7.1,9.9,5.5c3.2-1.6,3.9-6.6,1.6-11.2
			c-2.3-4.6-6.7-7.1-9.9-5.5C28.3,28.1,27.6,33.1,29.8,37.7L29.8,37.7z"/>
	</g>
	<path class="st2" d="M30.5,26.9c0,0-2.9,6.5,2.2,11.9c7.7,8,10.2-3.4,10.4-2.3c0,0-0.1,6.1-4,7.5C33.2,46.1,24.1,34.4,30.5,26.9z"
		/>
</g>
<g>
	<g>
		<ellipse transform="matrix(0.5498 -0.8353 0.8353 0.5498 0.8656 73.3816)" class="st1" cx="68.5" cy="35.9" rx="9.8" ry="6.9"/>
		<path class="st0" d="M66,45.4c-1.2,0-2.2-0.3-3.2-0.9h0c-3.4-2.3-3.7-8-0.5-12.7c3.1-4.7,8.5-6.8,11.9-4.5c3.4,2.3,3.7,8,0.5,12.7
			C72.5,43.4,69,45.4,66,45.4z M63.4,43.7c3,2,7.7,0,10.5-4.2c2.8-4.3,2.7-9.4-0.3-11.3c-3-2-7.7,0-10.5,4.2
			C60.3,36.6,60.4,41.7,63.4,43.7L63.4,43.7z"/>
	</g>
	<path class="st2" d="M74.6,28.6c0,0,2.1,6.8-3.6,11.5c-8.6,7-9.7-4.7-10.1-3.5c0,0-0.6,6.1,3,7.9C69.5,47.4,80,36.8,74.6,28.6z"/>
</g>
<path class="st2" d="M84.3,25.4C82.7,15.4,72.5,7.8,64.9,5.4C50.3,0.7,34.7,8.9,35.4,9.7c6.9-4.3,45-7.6,44.8,21.2
	C80,53.4,54,59.1,53.7,59.1c1.2-0.2,1.3,0.2,1.3,0.2C55,60,88.7,51.7,84.3,25.4z"/>
<path class="st2" d="M56.3,59.6c0,0,11.6,1.4,15.5,4.5c5,3.9,6.4,8.2,5.2,9.5c-1.3,1.4-2.3-0.2-2.3-0.2s-0.1,1.8,1.6,2.2
	c1.7,0.3,3.8-0.6,2.5-4.7C77.3,66.8,73.1,58.9,56.3,59.6z"/>
<path class="st2" d="M60.2,65.8c0,0-0.8,1.8,3.1,13.6c0.9,2.7,4.2,9.4,6.1,9.6c1.7,0.2,2,1.9,1.5,3c-0.5,1.1-6.3,3.9-6.4,2.8
	c-0.1-1.2-0.5-0.4-0.9-1.5c-0.3-1.1,1.6-3.5,1.6-3.5s-4,1.6-3.9,3.4c0.1,1.9,0.7,1.8,1.1,1.9c0.5,0.1,1-0.1,1-0.1s-0.2,0.8,0.4,1.2
	c0.6,0.4,4.3,0.3,6.8-1.9c2.5-2.2,2.6-2.6,2.6-2.6s0.2-2-1.3-2.9c-1.5-0.9-2.7-2.2-2.7-2.2L60.2,65.8z"/>
<g>
	<path class="st3" d="M44.3,36.9c-1.9-2-4.3-2.8-6.8-3.9L32,30.8c-0.5-0.2-2.2-1.1-2-0.7c-1.5-2.4-3-4.7-4.4-7.1
		c-0.1-0.2-0.3-0.3-0.4-0.3c-0.2-0.6-0.6-1-1.1-1.2c-3-1.3-7.4,7.1-9.5,12.2c-2.1,5.1-4.9,14.1-1.8,15.4c0.1,0,0.2,0.1,0.3,0.1
		c0.2,0.1,0.4,0.2,0.6,0.1l8.9-1.6c0.7-0.1,3.3,1.1,5.3,2.1l-3.1,7.5c-0.4,0.9,0,2,0.9,2.3c0.9,0.4,1.9-0.1,2.3-1l3.1-7.5
		c5.4,2,11,2.8,13.8-4.2C46.2,43.7,47,39.7,44.3,36.9z M22.3,32c-1.8,0.4-3.7,1.4-4.4,3c-0.7,1.7,0,3.7,1,5.2c-2.1,4.2-4,6.3-4.9,7
		c-0.2,0-0.4,0.1-0.6,0.1c0,0-0.1,0-0.1,0c-0.6-0.6-0.6-5,2.8-13.2c3.5-8.5,6.8-11.6,7.4-11.3C24,23.2,24.2,26.3,22.3,32z"/>
	<path class="st0" d="M26.3,60.2c-0.3,0-0.6-0.1-0.8-0.2c-0.6-0.2-1-0.7-1.2-1.2c-0.2-0.6-0.2-1.2,0-1.7l2.9-7.1
		c-1.5-0.7-4.1-1.9-4.6-1.8l-8.9,1.6c-0.3,0.1-0.7,0-0.9-0.2c-0.1,0-0.2,0-0.3-0.1c-4.1-1.7,0.6-13.7,1.6-16.1
		c1-2.4,6.1-14.2,10.2-12.5c0.6,0.2,1,0.7,1.3,1.3c0.2,0.1,0.3,0.3,0.4,0.4l4.3,6.8c0.3,0.1,0.7,0.3,1.3,0.6
		c0.2,0.1,0.5,0.2,0.6,0.3l6.4,2.6c2.2,0.9,4.3,1.8,6.1,3.6l0,0c2.3,2.4,2.6,5.9,0.7,10.5c-3,7.4-9,6.4-14,4.6l-2.9,7.1
		C28.1,59.7,27.2,60.2,26.3,60.2z M22.6,47.2c0.7,0,2.2,0.6,5.1,1.9l0.8,0.4l-3.3,8c-0.1,0.3-0.1,0.7,0,1c0.1,0.3,0.4,0.6,0.7,0.7
		c0.6,0.3,1.4-0.1,1.6-0.7l3.3-7.9l0.5,0.2c5.2,1.9,10.4,2.8,13.2-3.9c1.7-4.2,1.6-7.3-0.5-9.4c-1.6-1.7-3.7-2.5-5.8-3.4l-6.4-2.6
		c-0.1-0.1-0.4-0.2-0.6-0.3c-0.3-0.2-1-0.5-1.2-0.5l0.1-0.5l-0.5,0.3l0,0l-4.4-7.1c0-0.1-0.1-0.1-0.2-0.1L24.8,23l-0.1-0.2
		c-0.2-0.5-0.4-0.8-0.8-0.9c-2.2-0.9-6.2,5.3-8.9,11.9c-2.7,6.6-4.3,13.8-2.1,14.7c0.1,0,0.1,0,0.2,0.1l0.2,0.1c0,0,0.1,0.1,0.3,0
		l8.9-1.6C22.5,47.2,22.5,47.2,22.6,47.2z M30.2,30l0.3,0.3c0.1-0.2,0.1-0.4,0-0.5L30.2,30z M13.2,48l-0.3-0.2
		c-0.9-0.9-0.6-5.7,2.7-13.7c1.9-4.7,3.7-7.5,4.8-9c1-1.3,2.4-2.9,3.2-2.5c1.2,0.5,0.8,4.5-0.9,9.7l-0.1,0.3l-0.3,0.1
		c-1,0.2-3.3,1-4,2.7c-0.7,1.8,0.4,3.9,0.9,4.8l0.1,0.2l-0.1,0.2c-2.1,4.2-4,6.5-5.1,7.2l-0.2,0.1c-0.2,0-0.4,0.1-0.6,0.1L13.2,48z
		 M23.3,23.5c-0.9,0.5-3.7,3.5-6.7,11c-3,7.2-3.2,11.3-3,12.4c0.1,0,0.2,0,0.2,0c0.9-0.7,2.6-2.8,4.6-6.5c-0.7-1.3-1.7-3.5-0.9-5.5
		s3-2.9,4.5-3.3C23.5,26.8,23.5,24.2,23.3,23.5z"/>
</g>
<path class="st0" d="M39.2,38.2c-0.2,0.6-0.9,0.8-1.6,0.6l-7.2-2.6c-0.7-0.2-1-0.9-0.8-1.4l0,0c0.2-0.6,0.9-0.8,1.6-0.6l7.2,2.6
	C39,37,39.4,37.6,39.2,38.2L39.2,38.2z"/>
<circle class="st0" cx="41.6" cy="39.2" r="1.2"/>
<g>
	<path class="st0" d="M54.5,63c-2,0.2-3.5,2-3.3,4c0.2,2,2,3.5,4,3.3c2-0.2,3.5-2,3.3-4C58.2,64.3,56.5,62.8,54.5,63z M57.6,66.3
		c0.1,1.5-1,3-2.6,3.1c-0.8,0.1-1.5-0.2-2.1-0.6c-0.6-0.5-0.9-1.2-1-1.9c-0.1-1.4,0.8-2.7,2.2-3c0.1,0,0.2,0,0.4-0.1
		c0.8-0.1,1.5,0.2,2.1,0.6C57.2,64.9,57.6,65.6,57.6,66.3z"/>
	<path class="st0" d="M55.6,65L54.8,66l-1.1-0.9c-0.1-0.1-0.3,0-0.4,0.2c-0.1,0.2-0.2,0.4-0.1,0.5l1.1,0.9l-0.9,1.1
		c-0.1,0.1,0,0.3,0.2,0.4c0.2,0.1,0.4,0.2,0.5,0.1l0.9-1.1l1.1,0.9c0.1,0.1,0.3,0,0.4-0.2c0.1-0.2,0.2-0.4,0.1-0.5l-1.1-0.9l0.9-1.1
		c0.1-0.1,0-0.3-0.2-0.4C55.9,64.9,55.7,64.9,55.6,65z"/>
</g>
</svg>
