<?xml version="1.0" encoding="utf-8"?>
<!-- Generator: Adobe Illustrator 22.1.0, SVG Export Plug-In . SVG Version: 6.00 Build 0)  -->
<svg version="1.1" id="图层_1" xmlns="http://www.w3.org/2000/svg" xmlns:xlink="http://www.w3.org/1999/xlink" x="0px" y="0px"
	 viewBox="0 0 100 100" style="enable-background:new 0 0 100 100;" xml:space="preserve">
<style type="text/css">
	.st0{fill:#FFFFFF;}
	.st1{fill:#999999;}
	.st2{opacity:0.4;fill:#999999;}
	.st3{fill:#FAFAFA;}
</style>
<g>
	<path class="st0" d="M80,32C80,17.7,66.6,6.1,50.1,6.1S20.2,17.7,20.2,32c0,12.8,14.9,26.8,26.1,29.7c-0.2,0-0.3,0.1-0.5,0.1
		c-3.5,1-9.1,2.1-12.6,1.4c-3-0.6-4.2-3.8-4-6.7c0.3-3.5-1.6-0.9-1.7-1.4c-0.6-2.2-1.8-2.9-2.7-2.4c-2.3,1.2,0.5,11.3,7.7,14
		c3.4,1.2,9,1.2,9,1.2v22.2c0,0-4.9,0.6-5.8,2c-0.9,1.3,0.1,2.6,0.6,2.7c0.4,0.1-1.1,1.2,0,2.1c1,0.8,3.7-0.1,6.3-1.4
		c2.6-1.3,2.6-2.8,2.6-2.8v-6.9c0,0,1.1-3.5,4.8-3.7c3.7,0.2,4.8,3.7,4.8,3.7v6.9c0,0,0,1.4,2.6,2.8c2.6,1.3,5.3,2.2,6.3,1.4
		c1.1-0.9-0.4-2,0-2.1c0.4-0.1,1.4-1.3,0.6-2.7c-0.9-1.3-5.8-2-5.8-2V67.9c0,0,1.1-0.4,3.7,3.2c3.2,4.5,1,7.6,0.4,7.9
		c-0.6,0.3-1,1.2-0.6,1.8c0.4,0.6,1.6,0.1,1.6,0.1s0.8,2.2,1.6,2.4c1.1,0.4,1.9,0.3,2.9-1.1c0.9-1.4-0.3-7.8-3.7-13
		s-6.7-6.5-10.2-7.4c-0.1,0-0.3-0.1-0.4-0.1C65.4,58.9,80,44.8,80,32z"/>
	<path class="st1" d="M62.6,97.6c-1.7,0-4-1-5.4-1.7c-2.8-1.4-2.9-3-2.9-3.2v-6.8c-0.2-0.5-1.2-3.1-4.3-3.3c-3,0.2-4.1,2.8-4.3,3.3
		v6.8c0,0.2-0.1,1.8-2.9,3.2c-2,1-5.4,2.5-6.8,1.3c-1-0.8-0.5-1.8-0.2-2.2c-0.3-0.2-0.5-0.6-0.7-0.9c-0.3-0.7-0.2-1.6,0.2-2.3
		c0.8-1.3,4.3-1.9,5.7-2.1V68.4c-1.5,0-5.7-0.2-8.6-1.3c-5.7-2.1-8.6-8.4-8.8-12c-0.1-1.5,0.3-2.5,1.1-2.9c0.5-0.3,1.1-0.3,1.6,0
		c0.5,0.2,1.2,0.8,1.7,2.2c0.4-0.2,0.9-0.5,1.4-0.2c0.5,0.3,0.6,1,0.5,2.3c-0.2,2.6,0.8,5.6,3.6,6.2c3.1,0.6,7.9-0.3,11.1-1.1
		C32.9,57.7,19.7,44,19.7,32c0-14.5,13.6-26.4,30.4-26.4S80.5,17.5,80.5,32c0,12.2-13.2,25.9-24.8,29.7c3,1,6,2.5,9.2,7.3
		c3.4,5,4.9,11.8,3.7,13.5c-1.1,1.7-2.2,1.8-3.5,1.3c-0.8-0.3-1.4-1.5-1.7-2.3c-0.5,0.1-1.3,0.2-1.7-0.4c-0.3-0.3-0.3-0.8-0.2-1.2
		c0.1-0.5,0.5-1,1-1.3c0.1-0.1,0.7-0.7,0.9-1.9c0.2-1.1,0.1-3-1.5-5.3c-1.4-2-2.4-2.6-2.8-2.9v21.1c1.4,0.2,4.8,0.9,5.7,2.1
		c0.5,0.7,0.5,1.5,0.2,2.3c-0.2,0.4-0.4,0.7-0.7,0.9c0.3,0.4,0.7,1.4-0.2,2.2C63.7,97.5,63.2,97.6,62.6,97.6z M55.3,92.7
		c0,0,0.1,1.2,2.4,2.3c3.2,1.6,5.2,1.9,5.8,1.5c0.3-0.2,0.3-0.4,0-1c-0.2-0.3-0.3-0.5-0.2-0.8l0.1-0.2l0.3-0.1
		c0.1,0,0.3-0.3,0.5-0.7c0.1-0.4,0.1-0.8-0.2-1.2c-0.5-0.8-3.5-1.5-5.4-1.8l-0.4-0.1V67.6l0.3-0.1c0.3-0.1,1.7-0.3,4.3,3.3
		c2,2.7,2,4.9,1.7,6.3c-0.3,1.2-0.9,2.1-1.4,2.3c-0.2,0.1-0.4,0.4-0.5,0.6c0,0.2,0,0.3,0.1,0.4c0.1,0.2,0.7,0.1,1-0.1l0.5-0.2
		l0.2,0.5c0.3,0.9,0.9,2,1.3,2.1c1,0.3,1.5,0.3,2.3-0.9c0.8-1.2-0.3-7.4-3.7-12.4c-3.4-5.1-6.5-6.3-9.9-7.2c-0.1,0-0.2-0.1-0.4-0.1
		l-2.1-0.5l2.1-0.5C65.3,58.4,79.5,44.4,79.5,32c0-14-13.2-25.4-29.4-25.4S20.7,18,20.7,32c0,10.2,11.9,25.7,25.8,29.2l2.1,0.5
		l-2.1,0.4c-0.2,0-0.3,0.1-0.5,0.1c-3.2,0.9-9,2.2-12.8,1.5c-3.4-0.7-4.6-4.2-4.4-7.3c0.1-1.1-0.1-1.3-0.1-1.3c0,0-0.3,0.2-0.4,0.3
		c-0.3,0.2-0.6,0.4-0.9,0.2l-0.2-0.1L27,55.3c-0.3-1.1-0.8-1.9-1.3-2.1c-0.2-0.1-0.5-0.1-0.7,0c-0.4,0.2-0.6,0.9-0.5,1.9
		c0.2,3.5,3.2,9.3,8.2,11.1c3.3,1.2,8.7,1.2,8.8,1.2H42v23.1l-0.4,0.1c-1.9,0.3-4.9,1-5.4,1.8c-0.3,0.4-0.3,0.8-0.2,1.2
		c0.1,0.4,0.4,0.7,0.5,0.7c0.2,0,0.3,0.2,0.4,0.3c0.1,0.3,0,0.6-0.2,0.8c-0.3,0.6-0.3,0.8,0,1c0.5,0.4,2.5,0.2,5.8-1.4
		c2.3-1.1,2.4-2.3,2.4-2.3l0-7l0-0.1c0,0,1.2-3.9,5.2-4.1c4.1,0.2,5.3,4,5.3,4.1l0,0.1V92.7L55.3,92.7z"/>
</g>
<path class="st2" d="M78.5,24.4c-3-9.8-14.4-16.1-22.3-17.5c-15.2-2.8-29.5,7.2-28.7,8c6.4-5.2,43.9-13.4,47.4,15.3
	c2.7,22.5-22.5,31.6-22.8,31.6c5.3,1.9,18.2,12,13.6,21.5c-0.5,0.9,6.6,0.2-0.7-13.1c-3.5-6.4-11.6-8.4-11.6-8.4
	C53.6,62.5,86.2,50,78.5,24.4z"/>
<path class="st2" d="M49.9,81.6c0,0,1.6-0.2,3.3,1.3c1.6,1.5,1.5,2.4,1.5,2.4v6.9c0,0,0.1,1.2,1.2,2c1.1,0.8,4.9,3,6.9,2.6
	c2-0.4,1-2,0.7-2.3c-0.3-0.3,0.1,0.8-0.9,1c-1,0.2-4.5-1.3-5.6-2.8c-1.1-1.5-1.3-5.7-1.3-6.9S53.4,80.5,49.9,81.6z"/>
<g>
	<g>
		<g>
			<ellipse transform="matrix(0.9837 -0.1798 0.1798 0.9837 -6.8969 6.3884)" class="st0" cx="31.8" cy="41.2" rx="11.3" ry="7.6"/>
			<path class="st1" d="M30.2,49.5c-4.9,0-9.1-2.3-10-5.8l0,0c-0.4-1.6-0.1-3.3,0.9-4.9c1.6-2.6,4.9-4.6,8.7-5.5
				c6.4-1.4,12.4,1.1,13.5,5.4c0.4,1.6,0.1,3.3-0.9,4.9c-1.6,2.6-4.9,4.6-8.7,5.5C32.5,49.4,31.4,49.5,30.2,49.5z M33.4,34
				c-1.1,0-2.2,0.1-3.4,0.4c-3.6,0.8-6.6,2.6-8,5c-0.9,1.4-1.1,2.8-0.8,4.1l0,0c1,3.8,6.5,5.9,12.3,4.7c3.6-0.8,6.6-2.6,8-5
				c0.9-1.4,1.1-2.8,0.8-4.1C41.6,35.9,37.9,34,33.4,34z"/>
		</g>
		<path class="st2" d="M42.6,41.1c0,0-3.7,7-12.2,6.3c-12.8-1-4.5-11.8-5.7-11.2c0,0-5.6,4.2-4,8.4C23.1,51.1,40.6,51.7,42.6,41.1z"
			/>
	</g>
	<g>
		<g>
			
				<ellipse transform="matrix(0.1798 -0.9837 0.9837 0.1798 16.2547 100.1108)" class="st0" cx="68.2" cy="40.3" rx="7.6" ry="11.3"/>
			<path class="st1" d="M69.7,48.6c-1.1,0-2.3-0.1-3.5-0.4c-3.8-0.8-7.1-2.8-8.7-5.4c-1-1.6-1.3-3.3-0.9-4.9
				c1.1-4.3,7.1-6.8,13.5-5.4c3.8,0.8,7.1,2.8,8.7,5.4c1,1.6,1.3,3.3,0.9,4.9C78.8,46.3,74.7,48.6,69.7,48.6z M66.6,33
				c-4.5,0-8.2,2-9,5c-0.3,1.3-0.1,2.8,0.8,4.1c1.5,2.4,4.5,4.2,8,5l0,0c5.8,1.2,11.4-0.9,12.3-4.7c0.3-1.3,0.1-2.8-0.8-4.1
				c-1.5-2.4-4.5-4.2-8-5C68.8,33.2,67.6,33,66.6,33z"/>
		</g>
		<path class="st2" d="M57.1,40.1c0,0,3.7,7,12.2,6.3c12.8-1,4.5-11.8,5.7-11.2c0,0,5.6,4.2,4,8.4C76.6,50.1,59.1,50.7,57.1,40.1z"
			/>
	</g>
</g>
<path class="st1" d="M64.9,22.9c0,0.3-0.3,0.6-0.6,0.6l0,0c-0.3,0-0.6-0.3-0.6-0.6v-4.6c0-0.3,0.3-0.6,0.6-0.6l0,0
	c0.3,0,0.6,0.3,0.6,0.6V22.9z"/>
<path class="st2" d="M65.5,22.7c0,0.3-0.3,0.6-0.6,0.6l0,0c-0.3,0-0.6-0.3-0.6-0.6V18c0-0.3,0.3-0.6,0.6-0.6l0,0
	c0.3,0,0.6,0.3,0.6,0.6V22.7z"/>
<path class="st2" d="M69.3,22.7c0,0.3-0.3,0.6-0.6,0.6l0,0c-0.3,0-0.6-0.3-0.6-0.6V18c0-0.3,0.3-0.6,0.6-0.6l0,0
	c0.3,0,0.6,0.3,0.6,0.6V22.7z"/>
<path class="st2" d="M72.9,22.7c0,0.3-0.3,0.6-0.6,0.6l0,0c-0.3,0-0.6-0.3-0.6-0.6V18c0-0.3,0.3-0.6,0.6-0.6l0,0
	c0.3,0,0.6,0.3,0.6,0.6V22.7z"/>
<path class="st1" d="M68.6,22.9c0,0.3-0.3,0.6-0.6,0.6l0,0c-0.3,0-0.6-0.3-0.6-0.6v-4.6c0-0.3,0.3-0.6,0.6-0.6l0,0
	c0.3,0,0.6,0.3,0.6,0.6V22.9z"/>
<path class="st1" d="M72.3,22.9c0,0.3-0.3,0.6-0.6,0.6l0,0c-0.3,0-0.6-0.3-0.6-0.6v-4.6c0-0.3,0.3-0.6,0.6-0.6l0,0
	c0.3,0,0.6,0.3,0.6,0.6V22.9z"/>
<g>
	<g>
		<g>
			<path class="st3" d="M89,6.3c-2.2-0.8-4.3-0.3-5.6,1.4C83.2,8,83.1,8.3,83,8.4c-0.3,0.8,0.1,1.6,1,1.9c0.7,0.2,1.3,0,1.8-0.6
				c0.6-0.7,1.2-0.9,2-0.6c1,0.3,1.2,1.2,0.9,1.9c-0.2,0.6-0.5,1-1.5,1.6l-1.7,1c-1,0.6-1.5,1.1-1.9,2.2l-0.1,0.2
				c-0.3,0.9,0.1,1.8,1,2.1c0.9,0.3,1.8-0.1,2.1-1l0-0.1c0.1-0.4,0.3-0.6,0.9-1l1.9-1.1c1.3-0.8,2-1.6,2.5-2.8
				C92.9,9.6,91.6,7.2,89,6.3z"/>
			<path class="st1" d="M85.2,18.7c-0.3,0-0.5,0-0.8-0.1c-0.6-0.2-1-0.6-1.2-1.1c-0.2-0.5-0.3-1.1-0.1-1.6l0.1-0.2
				c0.4-1.2,1-1.9,2.1-2.5l1.7-1c1-0.6,1.2-0.9,1.3-1.3c0.1-0.2,0.3-0.9-0.6-1.2c-0.6-0.2-1-0.1-1.5,0.4c-0.7,0.8-1.5,1-2.4,0.7
				c-1.1-0.4-1.7-1.5-1.3-2.6c0-0.1,0.2-0.5,0.4-0.8c1.4-1.9,3.7-2.5,6.1-1.6l0,0c1.4,0.5,2.5,1.4,3.1,2.6c0.6,1.2,0.7,2.6,0.2,3.9
				c-0.5,1.3-1.3,2.3-2.7,3.1l-1.9,1.1c-0.6,0.3-0.6,0.4-0.7,0.7l0,0.1c-0.2,0.6-0.6,1-1.1,1.2C85.8,18.7,85.5,18.7,85.2,18.7z
				 M87.2,8.5c0.3,0,0.6,0.1,0.8,0.2c1.3,0.5,1.5,1.6,1.2,2.5c-0.3,0.8-0.7,1.2-1.8,1.9l-1.7,1c-0.9,0.5-1.3,1-1.7,2l-0.1,0.2
				c-0.1,0.3-0.1,0.6,0,0.9s0.4,0.5,0.7,0.6c0.3,0.1,0.6,0.1,0.9,0c0.3-0.1,0.5-0.4,0.6-0.7l0-0.1c0.2-0.5,0.4-0.8,1.1-1.2l1.9-1.1
				c1.2-0.7,1.8-1.4,2.2-2.6c0.4-1.1,0.3-2.2-0.2-3.1c-0.5-0.9-1.4-1.7-2.6-2.1l0,0c-2-0.7-3.9-0.2-5,1.3c-0.2,0.2-0.3,0.4-0.3,0.5
				c-0.2,0.6,0.1,1.1,0.7,1.3c0.5,0.2,0.9,0,1.3-0.4C86,8.8,86.6,8.5,87.2,8.5z"/>
		</g>
		<g>
			<path class="st3" d="M84.3,19.9c-1-0.4-2.2,0.2-2.5,1.2c-0.4,1,0.2,2.2,1.2,2.5c1,0.4,2.2-0.2,2.5-1.2
				C85.9,21.4,85.4,20.3,84.3,19.9z"/>
			<path class="st1" d="M83.7,24.3c-0.3,0-0.5,0-0.8-0.1c-0.6-0.2-1.1-0.7-1.4-1.3c-0.3-0.6-0.3-1.3-0.1-1.9
				c0.2-0.6,0.7-1.1,1.3-1.4c0.6-0.3,1.3-0.3,1.9-0.1c0.6,0.2,1.1,0.7,1.4,1.3c0.3,0.6,0.3,1.3,0.1,1.9c-0.2,0.6-0.7,1.1-1.3,1.4
				C84.4,24.2,84,24.3,83.7,24.3z M83.7,20.3c-0.2,0-0.4,0-0.6,0.1c-0.4,0.2-0.6,0.5-0.8,0.8s-0.1,0.8,0.1,1.1
				c0.2,0.4,0.5,0.6,0.8,0.8c0.4,0.1,0.8,0.1,1.1-0.1c0.4-0.2,0.6-0.5,0.8-0.8c0.1-0.4,0.1-0.8-0.1-1.1s-0.5-0.6-0.8-0.8l0,0
				C84,20.3,83.9,20.3,83.7,20.3z"/>
		</g>
	</g>
</g>
<g>
	<path class="st1" d="M52.3,66.2c-2,0.2-3.5,2-3.3,4c0.2,2,2,3.5,4,3.3c2-0.2,3.5-2,3.3-4S54.3,66,52.3,66.2z M55.5,69.6
		c0.1,1.5-1,3-2.6,3.1c-0.8,0.1-1.5-0.2-2.1-0.6c-0.6-0.5-0.9-1.2-1-1.9c-0.1-1.4,0.8-2.7,2.2-3c0.1,0,0.2,0,0.4-0.1
		c0.8-0.1,1.5,0.2,2.1,0.6C55.1,68.1,55.4,68.8,55.5,69.6z"/>
	<path class="st1" d="M53.5,68.2l-0.9,1.1l-1.1-0.9c-0.1-0.1-0.3,0-0.4,0.2c-0.1,0.2-0.2,0.4-0.1,0.5l1.1,0.9L51.2,71
		c-0.1,0.1,0,0.3,0.2,0.4c0.2,0.1,0.4,0.2,0.5,0.1l0.9-1.1l1.1,0.9c0.1,0.1,0.3,0,0.4-0.2c0.1-0.2,0.2-0.4,0.1-0.5l-1.1-0.9l0.9-1.1
		c0.1-0.1,0-0.3-0.2-0.4C53.8,68.1,53.6,68.1,53.5,68.2z"/>
</g>
</svg>
