<?xml version="1.0" encoding="utf-8"?>
<!-- Generator: Adobe Illustrator 22.1.0, SVG Export Plug-In . SVG Version: 6.00 Build 0)  -->
<svg version="1.1" id="图层_1" xmlns="http://www.w3.org/2000/svg" xmlns:xlink="http://www.w3.org/1999/xlink" x="0px" y="0px"
	 viewBox="0 0 100 100" style="enable-background:new 0 0 100 100;" xml:space="preserve">
<style type="text/css">
	.st0{fill:#FFFFFF;}
	.st1{fill:#999999;}
	.st2{opacity:0.4;fill:#999999;}
</style>
<g>
	<path class="st0" d="M47.8,61.5c-0.1,0-0.3,0.1-0.4,0.1c-3.5,1-6.8,2.3-10.2,7.4s-4.7,11.6-3.7,13c0.9,1.4,1.7,1.5,2.9,1.1
		c0.8-0.3,1.6-2.4,1.6-2.4s1.2,0.5,1.6-0.1c0.4-0.6,0-1.5-0.6-1.8c-0.6-0.3-2.8-3.4,0.4-7.9c2.6-3.6,3.7-3.2,3.7-3.2v22.2
		c0,0-4.9,0.6-5.8,2c-0.9,1.3,0.1,2.6,0.6,2.7c0.4,0.1-1.1,1.2,0,2.1c1,0.8,3.7-0.1,6.3-1.4c2.6-1.3,2.6-2.8,2.6-2.8v-6.9
		c0,0,1.1-3.5,4.8-3.7c3.7,0.2,4.8,3.7,4.8,3.7v6.9c0,0,0,1.4,2.6,2.8c2.6,1.3,5.3,2.2,6.3,1.4c1.1-0.9-0.4-2,0-2.1
		c0.4-0.1,1.4-1.3,0.6-2.7c-0.9-1.3-5.8-2-5.8-2V67.7c0,0,5.6,0,9-1.2c7.3-2.7,10-12.8,7.7-14c-1-0.5-2.1,0.2-2.7,2.4
		c-0.1,0.4-2-2.1-1.7,1.4c0.3,2.9-1,6.1-4,6.7c-3.5,0.7-9-0.5-12.6-1.4c-0.2,0-0.3-0.1-0.5-0.1c11.2-2.8,26.1-16.9,26.1-29.7
		c0-14.3-13.4-25.9-29.9-25.9S21.7,17.5,21.7,31.8C21.7,44.6,36.3,58.7,47.8,61.5z"/>
	<path class="st1" d="M39,97.4c-0.6,0-1.1-0.1-1.4-0.4c-1-0.8-0.5-1.8-0.2-2.2c-0.3-0.2-0.5-0.6-0.7-0.9c-0.3-0.7-0.2-1.6,0.2-2.3
		c0.8-1.3,4.3-1.9,5.7-2.1V68.3c-0.4,0.2-1.4,0.9-2.8,2.9c-1.7,2.3-1.8,4.2-1.5,5.3c0.2,1.1,0.8,1.8,0.9,1.9c0.5,0.2,0.9,0.7,1,1.3
		c0.1,0.5,0,0.9-0.2,1.2c-0.4,0.6-1.2,0.5-1.7,0.4c-0.3,0.8-0.9,2-1.7,2.3C35.2,84,34.1,84,33,82.3c-1.2-1.8,0.4-8.5,3.7-13.5
		c3.1-4.7,6.1-6.3,9.2-7.3C34.4,57.7,21.2,44,21.2,31.8c0-14.5,13.6-26.4,30.4-26.4S82,17.3,82,31.8c0,12-13.2,25.7-24.7,29.6
		c3.2,0.8,8,1.7,11.1,1.1c2.8-0.5,3.8-3.6,3.6-6.2c-0.1-1.3,0-2,0.5-2.3c0.5-0.3,1,0,1.4,0.2c0.5-1.4,1.2-2,1.7-2.2
		c0.5-0.2,1.1-0.2,1.6,0c0.8,0.4,1.1,1.4,1.1,2.9c-0.2,3.6-3.2,9.9-8.8,12c-2.9,1-7.2,1.2-8.6,1.3v21.2c1.4,0.2,4.8,0.9,5.7,2.1
		c0.5,0.7,0.5,1.5,0.2,2.3c-0.2,0.4-0.4,0.7-0.7,0.9c0.3,0.4,0.7,1.4-0.2,2.2c-1.4,1.1-4.9-0.4-6.8-1.3c-2.8-1.4-2.9-3-2.9-3.2v-6.8
		c-0.2-0.5-1.2-3.1-4.3-3.3c-3,0.2-4.1,2.8-4.3,3.3v6.8c0,0.2-0.1,1.8-2.9,3.2C43,96.4,40.6,97.4,39,97.4z M42.9,67.2
		c0.1,0,0.3,0,0.3,0.1l0.3,0.1v22.9l-0.4,0.1c-1.9,0.3-4.9,1-5.4,1.8c-0.3,0.4-0.3,0.8-0.2,1.2c0.1,0.4,0.4,0.7,0.5,0.7
		c0.2,0,0.3,0.2,0.4,0.3c0.1,0.3,0,0.6-0.2,0.8c-0.3,0.6-0.3,0.8,0,1c0.5,0.4,2.5,0.2,5.8-1.5c2.3-1.1,2.4-2.3,2.4-2.3l0-7l0-0.1
		c0,0,1.2-3.9,5.2-4.1c4.1,0.2,5.3,4,5.3,4.1l0,0.1v6.9l0,0c0,0,0.1,1.2,2.4,2.3c3.2,1.6,5.2,1.9,5.8,1.5c0.3-0.2,0.3-0.4,0-1
		c-0.2-0.3-0.3-0.5-0.2-0.8l0.1-0.2l0.3-0.1c0.1,0,0.3-0.3,0.5-0.7c0.1-0.4,0.1-0.8-0.2-1.2c-0.5-0.8-3.5-1.5-5.4-1.8l-0.4-0.1V67.2
		h0.5c0.1,0,5.5,0,8.8-1.2c5-1.8,8-7.6,8.2-11.1c0.1-1-0.1-1.7-0.5-1.9c-0.2-0.1-0.5-0.1-0.7,0c-0.5,0.2-1,1-1.3,2.1l-0.1,0.2
		l-0.3,0.1c-0.3,0.1-0.6-0.1-0.9-0.2c-0.1-0.1-0.4-0.2-0.5-0.3c0,0-0.1,0.3,0,1.3c0.3,3-1,6.6-4.4,7.3c-3.8,0.8-9.6-0.6-12.8-1.5
		c-0.2,0-0.3-0.1-0.5-0.1l-2.1-0.4l2.1-0.5C69.1,57.5,81,42,81,31.8c0-14-13.2-25.4-29.4-25.4S22.2,17.8,22.2,31.8
		c0,12.4,14.1,26.4,25.7,29.2l2.1,0.5L47.9,62c-0.1,0-0.2,0.1-0.4,0.1c-3.4,0.9-6.5,2.1-9.9,7.2c-3.4,5.1-4.5,11.3-3.7,12.4
		c0.8,1.2,1.3,1.2,2.3,0.9c0.4-0.1,0.9-1.2,1.3-2.1l0.2-0.5l0.5,0.2c0.3,0.1,0.9,0.2,1,0.1c0.1-0.1,0.1-0.2,0.1-0.4
		c-0.1-0.3-0.3-0.5-0.5-0.6c-0.5-0.2-1.1-1.1-1.4-2.3c-0.3-1.4-0.3-3.6,1.7-6.3C41.1,67.7,42.3,67.2,42.9,67.2z"/>
</g>
<path class="st2" d="M51.3,81.4c0,0,1.6-0.2,3.3,1.3c1.6,1.5,1.5,2.4,1.5,2.4V92c0,0,0.1,1.2,1.2,2c1.1,0.8,4.9,3,6.9,2.6
	c2-0.4,1-2,0.7-2.3c-0.3-0.3,0.1,0.8-0.9,1c-1,0.2-4.5-1.3-5.6-2.8c-1.1-1.5-1.3-5.7-1.3-6.9C57.1,84.4,54.9,80.3,51.3,81.4z"/>
<path class="st1" d="M34.1,35.2c0,0.7-0.3,1.3-0.6,1.3l0,0c-0.3,0-0.6-0.6-0.6-1.3v-9.6c0-0.7,0.3-1.3,0.6-1.3l0,0
	c0.3,0,0.6,0.6,0.6,1.3V35.2z"/>
<path class="st2" d="M34.7,34.8c0,0.7-0.3,1.3-0.6,1.3l0,0c-0.3,0-0.6-0.6-0.6-1.3v-9.6c0-0.7,0.3-1.3,0.6-1.3l0,0
	c0.3,0,0.6,0.6,0.6,1.3V34.8z"/>
<path class="st2" d="M38.4,34.8c0,0.7-0.3,1.3-0.6,1.3l0,0c-0.3,0-0.6-0.6-0.6-1.3v-9.6c0-0.7,0.3-1.3,0.6-1.3l0,0
	c0.3,0,0.6,0.6,0.6,1.3V34.8z"/>
<path class="st2" d="M42.1,34.8c0,0.7-0.3,1.3-0.6,1.3l0,0c-0.3,0-0.6-0.6-0.6-1.3v-9.6c0-0.7,0.3-1.3,0.6-1.3l0,0
	c0.3,0,0.6,0.6,0.6,1.3V34.8z"/>
<path class="st1" d="M37.8,35.2c0,0.7-0.3,1.3-0.6,1.3l0,0c-0.3,0-0.6-0.6-0.6-1.3v-9.6c0-0.7,0.3-1.3,0.6-1.3l0,0
	c0.3,0,0.6,0.6,0.6,1.3V35.2z"/>
<path class="st1" d="M41.4,35.2c0,0.7-0.3,1.3-0.6,1.3l0,0c-0.3,0-0.6-0.6-0.6-1.3v-9.6c0-0.7,0.3-1.3,0.6-1.3l0,0
	c0.3,0,0.6,0.6,0.6,1.3V35.2z"/>
<path class="st2" d="M80.6,25.5c-2.4-9.9-13-16.7-20.8-18.7c-14.9-3.7-29.9,5.6-29.2,6.4c6.6-4.7,44.4-10.7,46.1,18
	c1.4,22.5-24.1,30-24.5,30c1.2-0.3,1.3,0.1,1.3,0.1C53.7,62,86.7,51.3,80.6,25.5z"/>
</svg>
