<?xml version="1.0" encoding="utf-8"?>
<!-- Generator: Adobe Illustrator 22.1.0, SVG Export Plug-In . SVG Version: 6.00 Build 0)  -->
<svg version="1.1" id="图层_1" xmlns="http://www.w3.org/2000/svg" xmlns:xlink="http://www.w3.org/1999/xlink" x="0px" y="0px"
	 viewBox="0 0 100 100" style="enable-background:new 0 0 100 100;" xml:space="preserve">
<style type="text/css">
	.st0{fill:#FFFFFF;}
	.st1{fill:#999999;}
	.st2{opacity:0.4;fill:#999999;}
</style>
<g>
	<path class="st0" d="M80,30.9C80,16.6,66.6,5,50.1,5S20.2,16.6,20.2,30.9c0,12.8,14.9,26.8,26.1,29.7c-0.2,0-0.3,0.1-0.5,0.1
		c-3.5,1-6.8,2.3-10.2,7.4s-4.7,11.6-3.7,13c0.9,1.4,1.7,1.5,2.9,1.1c0.8-0.3,1.6-2.4,1.6-2.4s1.2,0.5,1.6-0.1
		c0.4-0.6,0-1.5-0.6-1.8c-0.6-0.3-2.8-3.4,0.4-7.9c2.6-3.6,3.7-3.2,3.7-3.2v22.2c0,0-4.9,0.6-5.8,2c-0.9,1.3,0.1,2.6,0.6,2.7
		c0.4,0.1-1.1,1.2,0,2.1c1,0.8,3.7-0.1,6.3-1.4c2.6-1.3,2.6-2.8,2.6-2.8v-6.9c0,0,1.1-3.5,4.8-3.7c3.7,0.2,4.8,3.7,4.8,3.7v6.9
		c0,0,0,1.4,2.6,2.8c2.6,1.3,5.3,2.2,6.3,1.4c1.1-0.9-0.4-2,0-2.1c0.4-0.1,1.4-1.3,0.6-2.7c-0.9-1.3-5.8-2-5.8-2V66.8
		c0,0,1.1-0.4,3.7,3.2c3.2,4.5,1,7.6,0.4,7.9s-1,1.2-0.6,1.8c0.4,0.6,1.6,0.1,1.6,0.1s0.8,2.2,1.6,2.4c1.1,0.4,1.9,0.3,2.9-1.1
		c0.9-1.4-0.3-7.8-3.7-13c-3.5-5.2-6.7-6.5-10.2-7.4c-0.1,0-0.3-0.1-0.4-0.1C65.4,57.8,80,43.7,80,30.9z"/>
	<path class="st1" d="M37.4,96.4c-0.6,0-1.1-0.1-1.4-0.4c-1-0.8-0.5-1.8-0.2-2.2c-0.3-0.2-0.5-0.6-0.7-0.9c-0.3-0.7-0.2-1.5,0.2-2.3
		c0.8-1.3,4.3-1.9,5.7-2.1V67.4c-0.4,0.2-1.4,0.9-2.8,2.9c-1.7,2.3-1.8,4.2-1.5,5.3c0.2,1.1,0.8,1.8,0.9,1.9c0.5,0.2,0.9,0.7,1,1.3
		c0.1,0.5,0,0.9-0.2,1.2c-0.4,0.6-1.2,0.5-1.7,0.4c-0.3,0.8-0.9,2-1.7,2.3c-1.3,0.5-2.3,0.4-3.5-1.3c-1.1-1.8,0.4-8.5,3.7-13.5
		c3.2-4.8,6.2-6.3,9.3-7.3c-11.6-3.9-24.8-17.6-24.8-29.6c0-14.5,13.6-26.4,30.4-26.4c16.8,0,30.4,11.8,30.4,26.4
		c0,12.2-13.2,25.9-24.8,29.7c3,1,6,2.5,9.2,7.3c3.4,5,4.9,11.8,3.7,13.5c-1.1,1.7-2.2,1.8-3.5,1.3c-0.8-0.3-1.4-1.5-1.7-2.3
		c-0.5,0.1-1.3,0.2-1.7-0.4c-0.3-0.3-0.3-0.8-0.2-1.2c0.1-0.5,0.5-1,1-1.3c0.1-0.1,0.7-0.7,0.9-1.9c0.2-1.1,0.2-3-1.5-5.3
		c-1.4-2-2.4-2.6-2.8-2.9v21.1c1.4,0.2,4.8,0.9,5.7,2.1c0.5,0.7,0.5,1.5,0.2,2.3c-0.2,0.4-0.4,0.7-0.7,0.9c0.3,0.4,0.7,1.4-0.2,2.2
		c-1.4,1.1-4.9-0.4-6.8-1.3c-2.8-1.4-2.9-3-2.9-3.2v-6.8c-0.2-0.5-1.2-3.1-4.3-3.3c-3,0.2-4.1,2.8-4.3,3.3v6.8
		c0,0.2-0.1,1.8-2.9,3.2C41.4,95.4,39.1,96.4,37.4,96.4z M41.4,66.3c0.1,0,0.3,0,0.3,0.1l0.3,0.1v22.9l-0.4,0.1
		c-1.9,0.3-4.9,1-5.4,1.8c-0.3,0.4-0.3,0.8-0.2,1.2c0.1,0.4,0.4,0.7,0.5,0.7c0.2,0,0.3,0.2,0.4,0.3c0.1,0.3,0,0.6-0.2,0.8
		c-0.3,0.6-0.3,0.8,0,1c0.5,0.4,2.5,0.2,5.8-1.5c2.3-1.1,2.4-2.3,2.4-2.3l0-7l0-0.1c0,0,1.2-3.9,5.2-4.1c4.1,0.2,5.3,4,5.3,4.1
		l0,0.1v6.9l0,0c0,0,0.1,1.2,2.4,2.3c3.2,1.6,5.2,1.9,5.8,1.4c0.3-0.2,0.3-0.4,0-1c-0.2-0.3-0.3-0.5-0.2-0.8l0.1-0.2l0.3-0.1
		c0.1,0,0.3-0.3,0.5-0.7c0.1-0.4,0.1-0.8-0.2-1.2c-0.5-0.8-3.5-1.5-5.4-1.8l-0.4-0.1V66.4l0.3-0.1c0.3-0.1,1.7-0.3,4.3,3.3
		c2,2.7,2,4.9,1.7,6.3c-0.3,1.2-0.9,2.1-1.4,2.3c-0.2,0.1-0.4,0.4-0.5,0.6c0,0.1,0,0.3,0.1,0.4c0.1,0.2,0.7,0.1,1-0.1l0.5-0.2
		l0.2,0.5c0.3,0.9,0.9,2,1.3,2.1c1,0.3,1.5,0.3,2.3-0.9c0.8-1.2-0.3-7.4-3.7-12.4c-3.4-5.1-6.5-6.3-9.9-7.2c-0.1,0-0.2-0.1-0.4-0.1
		l-2.1-0.5l2.1-0.5c11.6-2.8,25.7-16.8,25.7-29.2c0-14-13.2-25.4-29.4-25.4c-16.2,0-29.4,11.4-29.4,25.4c0,10.2,11.9,25.7,25.8,29.2
		l2.1,0.5L46.4,61c-0.2,0-0.3,0.1-0.5,0.1c-3.4,0.9-6.5,2.1-9.9,7.2c-3.4,5.1-4.5,11.3-3.7,12.4c0.8,1.2,1.3,1.2,2.3,0.9
		c0.4-0.1,0.9-1.2,1.3-2.1l0.2-0.5l0.5,0.2c0.3,0.1,0.9,0.2,1,0.1c0.1-0.1,0.1-0.3,0.1-0.4c-0.1-0.3-0.3-0.5-0.5-0.6
		c-0.5-0.2-1.1-1.1-1.4-2.3c-0.3-1.4-0.3-3.6,1.7-6.3C39.5,66.7,40.8,66.3,41.4,66.3z"/>
</g>
<g>
	<ellipse transform="matrix(0.949 -0.3154 0.3154 0.949 -9.7848 13.1321)" class="st0" cx="35.7" cy="36.8" rx="6.5" ry="9.1"/>
	<path class="st1" d="M37.1,46.2c-3.2,0-6.6-2.9-8-7.2c-0.8-2.4-0.9-4.9-0.2-7c0.7-2.2,2-3.7,3.8-4.3c3.6-1.2,8,1.9,9.6,6.9
		c1.7,5,0.1,10.1-3.6,11.3l0,0C38.2,46.1,37.7,46.2,37.1,46.2z M34.3,28.4c-0.5,0-0.9,0.1-1.3,0.2c-1.5,0.5-2.6,1.8-3.2,3.6
		c-0.6,1.9-0.5,4.2,0.2,6.4c1.5,4.5,5.3,7.4,8.4,6.3c3.1-1,4.4-5.6,2.9-10.1C40,31,37.1,28.4,34.3,28.4z"/>
</g>
<g>
	<path class="st0" d="M62.5,45.5c-3.4-1.1-4.8-5.9-3.2-10.7c1.6-4.8,5.6-7.8,9-6.6c3.4,1.1,4.8,5.9,3.2,10.7S65.9,46.6,62.5,45.5z"
		/>
	<path class="st1" d="M64,46.2c-0.5,0-1.1-0.1-1.6-0.3l0,0c-3.6-1.2-5.2-6.3-3.6-11.3c1.7-5,6-8.2,9.6-6.9c1.8,0.6,3.1,2.1,3.8,4.3
		c0.6,2.1,0.6,4.6-0.2,7C70.5,43.3,67.2,46.2,64,46.2z M62.6,45c3.1,1,6.9-1.8,8.4-6.3c0.7-2.2,0.8-4.5,0.2-6.4
		c-0.6-1.9-1.7-3.2-3.2-3.6c-3.1-1-6.9,1.8-8.4,6.3C58.2,39.4,59.5,44,62.6,45L62.6,45z"/>
</g>
<path class="st2" d="M78.5,23.3c-3-9.8-14.4-16.1-22.3-17.5c-15.2-2.8-29.5,7.2-28.7,8C33.9,8.6,71.4,0.3,74.9,29
	c2.7,22.5-22.5,31.6-22.8,31.6c5.3,1.9,18.2,12,13.6,21.5C65.3,83,72.3,82.3,65,69c-3.5-6.4-11.6-8.4-11.6-8.4
	C53.6,61.3,86.3,48.9,78.5,23.3z"/>
<path class="st2" d="M49.9,80.4c0,0,1.6-0.2,3.3,1.3s1.5,2.4,1.5,2.4v6.9c0,0,0.1,1.2,1.2,2c1.1,0.8,4.9,3,6.9,2.6
	c2-0.4,1-2,0.7-2.3s0.1,0.8-0.9,1S58,93,56.9,91.5c-1.1-1.5-1.3-5.7-1.3-6.9C55.7,83.5,53.5,79.3,49.9,80.4z"/>
<path class="st2" d="M33.9,28.2c0,0,6.2,2.4,6.3,9.3c0.2,10.3-9.7,4.5-9,5.4c0,0,4,4.2,7.5,2.6C43.9,43,43,28.9,33.9,28.2z"/>
<path class="st2" d="M69.8,29.8c0,0,3.3,6.7-1.7,11.4c-7.5,7.1-9.9-4.1-10.1-3c0,0-0.4,5.8,3.1,7.3C67.4,48,75.4,37.1,69.8,29.8z"/>
<g>
	<path class="st1" d="M51.8,64c-2,0.2-3.5,2-3.3,4s2,3.5,4,3.3c2-0.2,3.5-2,3.3-4S53.8,63.8,51.8,64z M55,67.4c0.1,1.5-1,3-2.6,3.1
		c-0.8,0.1-1.5-0.2-2.1-0.6c-0.6-0.5-0.9-1.2-1-1.9c-0.1-1.4,0.8-2.7,2.2-3c0.1,0,0.2,0,0.4-0.1c0.8-0.1,1.5,0.2,2.1,0.6
		C54.6,65.9,54.9,66.6,55,67.4z"/>
	<path class="st1" d="M53,66l-0.9,1.1L51,66.2c-0.1-0.1-0.3,0-0.4,0.2c-0.1,0.2-0.2,0.4-0.1,0.5l1.1,0.9l-0.9,1.1
		c-0.1,0.1,0,0.3,0.2,0.4c0.2,0.1,0.4,0.2,0.5,0.1l0.9-1.1l1.1,0.9c0.1,0.1,0.3,0,0.4-0.2c0.1-0.2,0.2-0.4,0.1-0.5l-1.1-0.9l0.9-1.1
		c0.1-0.1,0-0.3-0.2-0.4C53.3,65.9,53.1,65.9,53,66z"/>
</g>
</svg>
