<?xml version="1.0" encoding="utf-8"?>
<!-- Generator: Adobe Illustrator 22.1.0, SVG Export Plug-In . SVG Version: 6.00 Build 0)  -->
<svg version="1.1" id="图层_1" xmlns="http://www.w3.org/2000/svg" xmlns:xlink="http://www.w3.org/1999/xlink" x="0px" y="0px"
	 viewBox="0 0 100 100" style="enable-background:new 0 0 100 100;" xml:space="preserve">
<style type="text/css">
	.st0{fill: #f1f1f1;}
	.st1{fill:#999999;}
	.st2{opacity:0.4;fill:#999999;}
	.st3{fill:#EAEAEA;}
	.st4{fill:#FAFAFA;}
</style>
<g>
	<path class="st0" d="M74.7,60.5c-0.3-0.5-1-1-2.2-0.8c-1.2,0.2-1.6,0.8-1.6,0.8S71,59,70.2,59c-0.5,0-0.9,0.1-1.2,0.9
		s-0.8,3.3-1.8,4.1c0,0-2.5,2.7-5.4,4.3s-6,1.9-6,1.9c-1.4,0.2-2.6,0.3-3.2,0.2c-0.1,0-0.2,0-0.3-0.1c8.5-2,19.3-12.5,19.3-22
		c0-10.6-9.9-19.1-22.1-19.1s-22.1,8.6-22.1,19.1c0,9.5,11,19.9,19.3,21.9c-0.1,0-0.3,0.1-0.4,0.1c-0.7,0.2-1.5,0.4-2.2,0.7
		c-1-0.2-3.2-0.6-5.5-1.8c-3-1.6-5.4-4.3-5.4-4.3c-1-0.8-1.5-3.3-1.8-4.1C31.3,60,30.9,60,30.4,60c-0.8,0-0.7,1.4-0.7,1.4
		s-0.4-0.6-1.6-0.8c-1.2-0.2-1.9,0.4-2.2,0.8c-0.3,0.5-0.1,2.1,0.4,2.6c1,1.3,5.3,3.7,5.3,3.7s2.9,2.9,6.3,5.1
		c1.6,1,3.6,1.9,5.3,2.5v13.6v2.5c0,0-3.6,0.5-4.3,1.5c-0.6,1,0.1,1.9,0.4,2c0.3,0.1-0.8,0.9,0,1.5c0.7,0.6,2.7-0.1,4.7-1
		c1.9-1,2-2,2-2v-5.1c0,0,0.8-2.6,3.5-2.8c2.7,0.1,3.5,2.8,3.5,2.8v5.1c0,0,0,1.1,2,2c1.9,1,3.9,1.6,4.7,1c0.8-0.7-0.3-1.5,0-1.5
		c0.3-0.1,1.1-1,0.4-2c-0.6-1-4.3-1.5-4.3-1.5V74.9c0,0,0,0,0,0v-0.1c2-0.7,4.7-1.7,6.8-3c3.4-2.1,6.3-5.1,6.3-5.1s4.2-2.4,5.3-3.7
		C74.8,62.5,75,61,74.7,60.5z M56.3,51.2c1.2-3.5,4.2-5.7,6.7-4.9c2.5,0.8,3.6,4.4,2.4,7.9s-4.2,5.7-6.7,4.9
		C56.2,58.3,55.1,54.8,56.3,51.2z M41,59.2c-2.5,0.8-5.5-1.4-6.7-4.9s-0.1-7.1,2.4-7.9c2.5-0.8,5.5,1.4,6.7,4.9
		C44.6,54.8,43.5,58.3,41,59.2z"/>
	<path class="st1" d="M58.9,97c-1.2,0-2.8-0.6-4.1-1.3c-2.1-1.1-2.2-2.3-2.2-2.5v-5c-0.1-0.4-0.9-2.3-3.1-2.4
		c-2.1,0.1-2.9,2-3.1,2.4v5c0,0.1-0.1,1.4-2.2,2.5c-1.8,0.9-4.1,1.8-5.2,1c-0.7-0.6-0.4-1.3-0.2-1.7c-0.2-0.2-0.4-0.4-0.5-0.7
		c-0.2-0.6-0.2-1.2,0.2-1.8c0.6-1,3.1-1.4,4.2-1.6V75.6c-2.1-0.8-3.8-1.6-5.1-2.4c-3.2-2-6-4.7-6.4-5.1c-0.5-0.3-4.3-2.5-5.4-3.7
		c-0.6-0.7-0.9-2.5-0.4-3.2c0.3-0.4,1.1-1.3,2.7-1c0.5,0.1,0.9,0.2,1.1,0.3c0.1-0.2,0.2-0.5,0.3-0.7c0.2-0.2,0.5-0.3,0.7-0.3
		c0.4,0,0.7,0.1,1.1,0.3c-2.7-3.6-4.5-7.7-4.5-11.5c0-10.8,10.1-19.6,22.6-19.6c12.5,0,22.6,8.8,22.6,19.6c0,8.6-8.7,18.1-16.9,21.5
		c0.2,0,0.4-0.1,0.5-0.1c0,0,3-0.3,5.8-1.9c2.9-1.5,5.3-4.2,5.3-4.2c0.8-0.6,1.3-2.6,1.5-3.5c0-0.2,0.1-0.3,0.1-0.4
		c0.3-1.1,1-1.3,1.6-1.3c0.3,0,0.6,0.1,0.7,0.3c0.2,0.2,0.3,0.4,0.3,0.7c0.3-0.1,0.7-0.3,1.1-0.3c1.6-0.3,2.4,0.6,2.7,1l0,0
		c0.5,0.7,0.1,2.5-0.4,3.2c-1,1.3-4.8,3.4-5.4,3.7c-0.4,0.4-3.2,3.1-6.4,5.1c-2,1.3-4.6,2.3-6.6,3l0,15.7c1.1,0.2,3.6,0.7,4.2,1.6
		c0.4,0.6,0.4,1.2,0.2,1.8c-0.1,0.3-0.3,0.5-0.5,0.7c0.2,0.4,0.5,1.1-0.2,1.7C59.7,96.9,59.3,97,58.9,97z M53.5,93.2
		c0,0,0.1,0.8,1.7,1.6c2.3,1.2,3.8,1.4,4.2,1.1c0.2-0.1,0.2-0.2-0.1-0.6c-0.1-0.2-0.3-0.4-0.1-0.7l0.1-0.2l0.3-0.1
		c0,0,0.2-0.2,0.3-0.5c0.1-0.3,0-0.5-0.1-0.8c-0.4-0.5-2.6-1.1-3.9-1.3l-0.4-0.1V74.6l0.1,0l0.3-0.2c1.9-0.7,4.7-1.7,6.7-3
		c3.3-2.1,6.2-5,6.3-5l0.1-0.1c1.2-0.7,4.3-2.6,5.1-3.5c0.4-0.5,0.5-1.8,0.4-2.1l0.4-0.3l-0.4,0.3c-0.3-0.4-0.8-0.8-1.8-0.6
		c-1,0.2-1.3,0.6-1.3,0.6l-0.9,1.2l0.1-1.5c0-0.3,0-0.7-0.2-0.9c-0.4,0-0.6,0-0.8,0.5c0,0.1-0.1,0.3-0.1,0.4
		c-0.4,1.5-0.9,3.2-1.8,3.9c0,0.1-2.5,2.7-5.5,4.3c-3,1.6-6,1.9-6.1,2c-1.8,0.3-2.8,0.3-3.4,0.1c-0.1,0-0.2,0-0.3-0.1l-2-0.4l2-0.5
		c8.5-2,19-12.4,19-21.5c0-10.3-9.7-18.7-21.7-18.7S27.9,38,27.9,48.3c0,7.5,8.8,18.9,19,21.5l2,0.5l-2,0.4c-0.1,0-0.2,0.1-0.3,0.1
		c-0.8,0.2-1.5,0.5-2.1,0.7l-0.1,0.1l-0.1,0c-1.1-0.2-3.4-0.7-5.6-1.9c-3-1.6-5.4-4.3-5.6-4.4c-0.8-0.7-1.3-2.3-1.7-3.9
		c0-0.2-0.1-0.3-0.1-0.4c-0.2-0.6-0.4-0.6-0.7-0.6c-0.2,0.2-0.3,0.6-0.3,0.9l0.1,1.8l-1-1.5l0,0c0,0-0.3-0.4-1.3-0.5
		c-1-0.2-1.5,0.3-1.8,0.6c-0.2,0.3,0,1.6,0.4,2.1c0.8,1,4,2.9,5.1,3.5l0.1,0.1c0,0,2.9,2.9,6.3,5c1.3,0.8,3.1,1.7,5.2,2.5l0.3,0.1
		v16.8l-0.4,0.1c-1.4,0.2-3.6,0.7-3.9,1.3c-0.2,0.3-0.2,0.5-0.1,0.8c0.1,0.3,0.3,0.5,0.3,0.5c0.1,0,0.3,0.1,0.3,0.3
		c0.1,0.3,0,0.5-0.1,0.7c-0.2,0.4-0.2,0.5-0.1,0.6c0.4,0.3,1.8,0.1,4.2-1.1c1.6-0.8,1.7-1.6,1.7-1.6l0-5.2l0-0.1c0.3-1,1.5-3,4-3.1
		c2.5,0.1,3.7,2.1,4,3.1l0,0.1V93.2L53.5,93.2z M31.8,60.3c0.1,0.1,0.1,0.3,0.2,0.5c0,0.1,0.1,0.3,0.1,0.4c0.2,0.9,0.7,2.8,1.5,3.4
		c0.1,0.1,2.5,2.7,5.4,4.3c2.1,1.1,4.3,1.6,5.2,1.8c0.3-0.1,0.6-0.2,0.9-0.4C40.4,68.6,35.4,64.8,31.8,60.3z M59.8,59.8
		c-0.4,0-0.8-0.1-1.2-0.2c-1.4-0.5-2.4-1.6-2.9-3.3c-0.5-1.6-0.4-3.5,0.2-5.3c1.3-3.8,4.5-6.1,7.3-5.2c1.4,0.5,2.4,1.6,2.9,3.3
		c0.5,1.6,0.4,3.5-0.2,5.3C64.8,57.6,62.2,59.8,59.8,59.8z M61.9,46.6c-2,0-4.2,1.9-5.1,4.8c-0.5,1.6-0.6,3.3-0.2,4.7
		c0.4,1.3,1.2,2.3,2.3,2.6c2.3,0.7,5-1.3,6.1-4.6c0.5-1.6,0.6-3.3,0.2-4.7c-0.4-1.3-1.2-2.3-2.3-2.6C62.5,46.7,62.2,46.6,61.9,46.6z
		 M39.9,59.8c-2.4,0-5-2.2-6-5.4c-0.6-1.8-0.7-3.7-0.2-5.3c0.5-1.6,1.5-2.8,2.9-3.3c2.7-0.9,6,1.4,7.3,5.2c0.6,1.8,0.7,3.7,0.2,5.3
		c-0.5,1.6-1.5,2.8-2.9,3.3C40.8,59.7,40.3,59.8,39.9,59.8z M37.9,46.6c-0.3,0-0.6,0.1-1,0.2c-1.1,0.4-1.9,1.3-2.3,2.6
		c-0.4,1.4-0.4,3.1,0.2,4.7c1.1,3.3,3.8,5.4,6.1,4.6c1.1-0.4,1.9-1.3,2.3-2.6c0.4-1.4,0.4-3.1-0.2-4.7C42,48.5,39.9,46.6,37.9,46.6z
		"/>
</g>
<path class="st2" d="M71,41.8c-2.2-7.4-11.3-11.9-17.2-13c-11.3-2.1-21.1,5.4-20.5,6c4.8-3.9,32.8-10,35.4,11.4
	c2.1,16.8-16.8,23.6-17,23.6c0.9-0.3,1,0,1,0C52.8,70.4,76.8,60.9,71,41.8z"/>
<path class="st2" d="M49.6,85.3c0,0,1.2-0.1,2.4,1s1.1,1.8,1.1,1.8v5.2c0,0,0.1,0.9,0.9,1.5c0.8,0.6,3.7,2.2,5.2,1.9
	s0.7-1.5,0.5-1.7c-0.2-0.2,0.1,0.6-0.7,0.7c-0.8,0.1-3.4-1-4.2-2.1c-0.8-1.1-1-4.3-1-5.2S52.2,84.5,49.6,85.3z"/>
<path class="st2" d="M37.9,46.7c0,0,4.6,1.8,4.7,6.9c0.1,7.7-7.2,3.4-6.7,4c0,0,3,3.1,5.6,1.9C45.4,57.7,44.7,47.2,37.9,46.7z"/>
<path class="st2" d="M64.7,47.9c0,0,2.5,5-1.2,8.5c-5.6,5.3-7.4-3.1-7.5-2.2c0,0-0.3,4.3,2.3,5.4C62.9,61.5,68.9,53.3,64.7,47.9z"/>
<g>
	<g>
		<polygon class="st0" points="20.7,12.6 22.6,44.6 63.2,42.6 69.8,4.7 		"/>
		<path class="st1" d="M22.2,45.1l-2-32.9l0.4-0.1l49.7-8l-6.7,38.9l-0.4,0L22.2,45.1z M21.2,13l1.9,31.1l39.8-1.9l6.4-36.9L21.2,13
			z"/>
	</g>
	<g>
		<polygon class="st3" points="83.2,28 70,5.3 62.9,42.8 76.2,48.3 		"/>
		<path class="st1" d="M76.5,48.9l-14.1-5.8L69.7,4l14,23.9L76.5,48.9z M63.5,42.5l12.5,5.1L82.7,28L70.2,6.6L63.5,42.5z"/>
	</g>
	<g>
		<polygon class="st4" points="22.2,44.6 12.1,53.9 57.5,50.2 62.8,42.6 		"/>
		<path class="st1" d="M10.8,54.5L22,44.1l41.7-2l-5.9,8.6l-0.2,0L10.8,54.5z M22.4,45l-8.9,8.3l43.8-3.6l4.6-6.7L22.4,45z"/>
	</g>
	<g>
		<polygon class="st4" points="79.6,56.5 76.5,48.1 63.2,42.6 63.2,49.5 		"/>
		<path class="st1" d="M80.4,57.3l-17.7-7.5v-7.9l14.1,5.8L80.4,57.3z M63.7,49.2l15.1,6.4l-2.7-7.2l-12.4-5.1V49.2z"/>
	</g>
</g>
<path class="st2" d="M68.8,61.3c0,0,0.8-1.1,0.9-0.2c0.1,0.9,0.3,1.7,0.3,1.7s1.7-2.1,2.5-1.7c0.8,0.4,0,1.5-0.7,2.3
	c-0.7,0.8-2.6,1.6-3.2,1.9c-0.5,0.4-3.2,3.9-6.4,5.6c-3.2,1.8-6.7,3.5-6.7,3.5s4.1-0.2,8.2-3.3s5.4-4.5,5.4-4.5s3.4-2.4,4.3-3
	s2-2.5,1.2-3.3s-2.7-1.1-3.2-0.5S70.6,61,70.6,61s0.9-1.8-0.1-2S68.8,61.3,68.8,61.3z"/>
<path class="st1" d="M84.8,58.2c0.1,0.2,0,0.6-0.3,0.8l-2.9,1.9c-0.3,0.2-0.7,0.2-0.8,0l0,0c-0.1-0.2,0-0.6,0.3-0.8l2.9-1.9
	C84.3,58,84.7,58,84.8,58.2L84.8,58.2z"/>
<path class="st1" d="M88.3,61.7c0.1,0.3-0.3,0.6-0.8,0.8l-4.6,1.5c-0.5,0.2-1,0.1-1-0.2l0,0c-0.1-0.3,0.3-0.6,0.8-0.8l4.6-1.5
	C87.7,61.3,88.2,61.4,88.3,61.7L88.3,61.7z"/>
<path class="st1" d="M22.3,61.6c-0.1,0.3-0.4,0.4-0.8,0.3L18,60.5c-0.4-0.1-0.6-0.5-0.5-0.8l0,0c0.1-0.3,0.4-0.4,0.8-0.3l3.5,1.3
	C22.1,61,22.4,61.3,22.3,61.6L22.3,61.6z"/>
<path class="st1" d="M22.3,64.6c0,0.3-0.5,0.5-1,0.4l-4.8-0.9c-0.5-0.1-0.9-0.4-0.9-0.7l0,0c0-0.3,0.5-0.5,1-0.4l4.8,0.9
	C21.9,64,22.3,64.3,22.3,64.6L22.3,64.6z"/>
<g>
	<path class="st1" d="M49.3,73.2c-1.9,0.2-3.2,1.8-3.1,3.7c0.2,1.9,1.8,3.2,3.7,3.1c1.9-0.2,3.2-1.8,3.1-3.7
		C52.8,74.4,51.1,73,49.3,73.2z M52.2,76.3c0.1,1.4-0.9,2.8-2.4,2.9c-0.7,0.1-1.4-0.1-1.9-0.6c-0.5-0.5-0.9-1.1-0.9-1.8
		c-0.1-1.3,0.8-2.5,2-2.8c0.1,0,0.2,0,0.3-0.1c0.7-0.1,1.4,0.1,1.9,0.6C51.8,75,52.2,75.6,52.2,76.3z"/>
	<path class="st1" d="M50.4,75l-0.8,1l-1-0.8c-0.1-0.1-0.3,0-0.4,0.2c-0.1,0.2-0.2,0.4-0.1,0.4l1,0.8l-0.8,1c-0.1,0.1,0,0.3,0.2,0.4
		c0.2,0.1,0.4,0.2,0.4,0.1l0.8-1l1,0.8c0.1,0.1,0.3,0,0.4-0.2c0.1-0.2,0.2-0.4,0.1-0.4l-1-0.8l0.8-1c0.1-0.1,0-0.3-0.2-0.4
		C50.6,74.9,50.4,74.9,50.4,75z"/>
</g>
</svg>
