<svg xmlns="http://www.w3.org/2000/svg" viewBox="0 0 360 360"><defs><style>.cls-1{fill:none;}.cls-2{fill:#a7a7a7;}.cls-3{fill:#0f0f0f;}.cls-4{fill:#ececec;}.cls-4,.cls-5,.cls-6,.cls-7,.cls-8{stroke:#000;stroke-miterlimit:10;stroke-width:1.5px;}.cls-5{fill:#c6c6c6;}.cls-6{fill:#ffc51f;}.cls-7{fill:#fff;}.cls-8{fill:#e2e2e2;}</style></defs><title>列表空</title><g id="图层_2" data-name="图层 2"><g id="图层_1-2" data-name="图层 1"><rect class="cls-1" width="360" height="360"/><path class="cls-2" d="M305.72,186.07c-14.43-2.31-39.11-5.67-67.4-13.21s-39-12.77-89-14.07c-49.64-1.29-74.65,1-103.27,10.82-16.46,5.63-32.48,10.32-31.9,34.57s35.22,10.18,36.37,19.45-15.59,9.2-12.12,17.29,34.06-6.93,37,2.31-57.74,6.92-19,26,224.59,12.7,225.16-17.32,25.41-13.86,35.8-30.6S320.16,188.38,305.72,186.07Z"/><ellipse class="cls-3" cx="21.67" cy="249.58" rx="6.06" ry="5.2"/><path class="cls-3" d="M279.32,232.46c2.17,1.52,4.37,3,6.58,4.44,2.92-3.33,7-4.57,11.36-5.48a123.1,123.1,0,0,1-14.36-10.71C268,208.25,259.22,193.53,255,177.1c-5.21-1.17-10.61-2.48-16.14-3.95A76.88,76.88,0,0,0,243.3,188,101,101,0,0,0,279.32,232.46Z"/><path class="cls-3" d="M308,188a53.34,53.34,0,0,0,14.05,16.69c-.47-9-6.24-16.09-14.76-18.12C307.54,187,307.77,187.5,308,188Z"/><path class="cls-3" d="M259,186.34c6.41,16.45,17.68,29.09,31.85,39.28,2.69,1.93,5.52,3.67,8.36,5.41,4.76-.93,9.7-1.8,13.75-4.83a31.91,31.91,0,0,1-5.69-2.6c-13.09-8.41-24.08-18.87-31.05-33a76.2,76.2,0,0,1-4-9.91c-5.1-1-10.49-2.05-16.1-3.3A81,81,0,0,0,259,186.34Z"/><path class="cls-3" d="M280.53,196.24c7.71,12.2,18.33,21.44,30.75,28.67.64.36,1.26.75,1.88,1.13a17.12,17.12,0,0,0,4.11-4.6,29.77,29.77,0,0,0,4.84-15.18A46.06,46.06,0,0,1,312,195.75a82.51,82.51,0,0,1-5.74-9.43l-.49-.09c-4.26-.69-9.42-1.46-15.29-2.41,5.21,12.35,13.76,22.76,26.14,30.92a15.2,15.2,0,0,1,2.1,2C313,212.2,306.53,208.3,301.62,203a65.61,65.61,0,0,1-12.54-19.4c-4.84-.79-10.14-1.69-15.82-2.76A70.48,70.48,0,0,0,280.53,196.24Z"/><path class="cls-3" d="M128.27,279.92c5.44.16,11,.24,16.62.25-.68-.52-1.36-1.05-2-1.59a166.16,166.16,0,0,1-45-56.56,145.73,145.73,0,0,1-14.26-49.34,9,9,0,0,1,.16-1.78h0c-.33-3.28-.79-6.56-1.09-9.84-4.58.62-9,1.37-13.29,2.27C72.92,211.92,93.59,250.15,128.27,279.92Z"/><path class="cls-3" d="M56.31,269.36c6.82,3.36,18.23,5.93,32.38,7.72a176.6,176.6,0,0,1-22.54-27.86c-4.13,1.1-9,2.11-13.16,3.31q3.21,5.15,6.85,10.15c-2.49-3.32-4.82-6.69-7-10.1C42.61,255.54,36.71,259.71,56.31,269.36Z"/><path class="cls-3" d="M67.26,248.92A170,170,0,0,0,90.1,277.26c5.62.68,11.66,1.24,18,1.68C75.88,249.75,57.45,210.43,54.8,167c-2.9.85-5.8,1.78-8.74,2.78l-4.44,1.52q3.38,38.6,20.82,69.57c6.37-1,11.79-1.11,12.92,2.52C76.13,245.84,72.41,247.48,67.26,248.92Z"/><path class="cls-3" d="M83.81,170.91h0q1.44,7.16,2.87,14.31c5,25.07,15.95,47.25,31.76,67.24a176.8,176.8,0,0,0,28.07,27.71c5.39,0,10.83-.08,16.29-.22l-10-8,.35-.45,10.7,8.4c5.48-.15,11-.37,16.41-.65C158,263.42,139.58,243.87,126.67,219a145.26,145.26,0,0,1-16.18-57.54c-.06-.87-.1-1.74-.13-2.61-4.59.16-8.94.38-13.09.69a160.42,160.42,0,0,0,16.43,62.08c-9-13.69-15.74-37.18-17.16-62-4.53.34-8.84.78-13,1.32C83.64,164.26,83.73,167.58,83.81,170.91Zm64.82,97.21c-9.32-8.52-18.94-18.68-25.16-28.85Z"/><path class="cls-3" d="M198.65,278c5.18-.43,10.26-.93,15.2-1.5C195.92,265,180.06,251,167.07,233.8c-16.73-22.19-27.06-47-29.23-74.86,0-.07,0-.15,0-.23-4.44-.07-8.67-.1-12.72-.09,1.75,26.67,10.59,50.93,25.6,72.88C163.56,250.31,179.89,265.5,198.65,278Z"/><path class="cls-3" d="M220,231.52c11.83,13,25.8,23.32,41.24,31.66l4.63,2.47a42.72,42.72,0,0,0,11-5.87,85.22,85.22,0,0,1-14.5-8.87c2.16,1.11,4.32,2.23,6.5,3.31l9.21,4.51c2.21-2.08,3.42-4.31,3.47-6.69,0-1.32.1-2.55.22-3.7l-4.8-2.41,4.81,2.3c.5-4.82,1.77-8.17,3.57-10.56-.82-.49-1.63-1-2.43-1.51-22-14.57-38-33.84-44.4-59.88-.28-1.14-.53-2.28-.77-3.43-5.9-1.58-11-3.06-16-4.42,3.08,21.2,12.67,39.58,28.08,55.46a120.62,120.62,0,0,0,25.06,20.18,14.63,14.63,0,0,1,2.18,1.93c-5.51-3.54-11.41-6.61-16.45-10.73-12.45-10.14-22.91-22.07-30.3-36.52a96.63,96.63,0,0,1-9.66-30.62c-5.27-1.45-10.32-2.76-15.82-3.91,3.47,31.92,19.57,56.69,44.27,76.57,4.36,3.51,8.9,6.8,13.36,10.19-3.93-2.54-8.06-4.84-11.77-7.68-23.47-18-39.8-40.7-45.53-70.1a75,75,0,0,1-1.09-9.14c-4.82-1-10-1.86-16-2.6C190.44,188.36,201.75,211.42,220,231.52Z"/><path class="cls-3" d="M38.41,241.07c1,2.42,4.5,2.76,8.91,2.32q-2.67-4.81-5-9.74C39.28,235.54,36.89,237.52,38.41,241.07Z"/><path class="cls-3" d="M15.19,193.76a40.43,40.43,0,0,0-1,10.58c.16,6.48,2.76,10.21,6.49,12.39-.16-.51-.33-1-.49-1.53A181.2,181.2,0,0,1,15.19,193.76Z"/><path class="cls-3" d="M37.36,219.92c6.87.18,12.72.15,13.18,3.86.62,5-4,7.29-7.79,9.61q2.28,5,4.93,10c4.13-.45,9-1.55,13.6-2.32l-.7-1.28a168.9,168.9,0,0,1-19.32-68.34A74.44,74.44,0,0,0,28,177.15,187.22,187.22,0,0,0,37.36,219.92Z"/><path class="cls-3" d="M15.8,191.64a181.08,181.08,0,0,0,6,25.7c4.31,2.06,9.82,2.41,14.86,2.56a166.29,166.29,0,0,1-9.09-42.51C22.25,180.6,18,184.94,15.8,191.64Z"/><path class="cls-3" d="M138.84,159.53C141.3,186.39,151,210.35,167.05,232c13.36,18,29.83,32.38,48.37,44.36,5.86-.69,11.51-1.48,16.87-2.36-2.87-1.59-5.74-3.2-8.48-5-16.41-10.71-31-23.59-42.61-39.39-15.71-21.37-25.2-44.78-27.13-70.51l-4.73-.13c-3.68-.1-7.21-.17-10.63-.23C138.76,159,138.81,159.26,138.84,159.53Z"/><path class="cls-3" d="M228.8,271c1.47.92,2.92,1.88,4.36,2.85,12.83-2.14,24-4.82,32.29-8a196.29,196.29,0,0,1-17.68-9.55,136.67,136.67,0,0,1-35.25-31.91,122.48,122.48,0,0,1-21.35-40.9,96.33,96.33,0,0,1-4.12-22.11c-4.59-.54-9.65-1-15.38-1.4.08,1.15.17,2.3.29,3.44,2.21,21.55,10,41.08,22.59,58.73,14.47,20.31,33.28,35.61,54.82,47.79a12.93,12.93,0,0,1-3.36-.83c-23.42-13.55-43.3-30.93-57.53-54.18a121,121,0,0,1-17.95-55c-4.66-.3-9.76-.55-15.39-.74a129.34,129.34,0,0,0,13.64,48.47C182.48,234.68,203.35,255,228.8,271Z"/><path class="cls-3" d="M138.51,236.3a175.91,175.91,0,0,0,43.32,42.88c5.21-.29,10.37-.64,15.44-1.05-22-14.87-40.48-33.29-53.94-56.51a143.91,143.91,0,0,1-19.32-63c-4.46,0-8.68.09-12.73.21A148.87,148.87,0,0,0,138.51,236.3Z"/><path class="cls-3" d="M66.61,217.05c9.28,24.33,24,44.53,42.39,61.95,5.69.39,11.61.68,17.69.87-35.48-30.32-56.4-72.53-57.78-116.45-4.44.94-8.8,2-13.16,3.29A173.25,173.25,0,0,0,66.61,217.05Z"/><path class="cls-4" d="M341.52,115.36c-1.11-2.65-2.42-5.24-3.77-7.81-7.63-18.13-22.85-30.31-33.81-27.25a12,12,0,0,0-2.53,1h0L188.48,139.39l36.67,71.31L337.43,153l0,0,.58-.3h0C346.82,147.78,348.51,132,341.52,115.36Z"/><path class="cls-5" d="M187.69,185c8.77,18.92,24.94,30.7,36.05,26.33s13-23.25,4.24-42.17c-.64-1.39-1.34-2.76-2-4.12-8.78-18.92-24.94-30.69-36.05-26.32s-13,23.25-4.24,42.16C186.29,182.3,187,183.67,187.69,185Z"/><path class="cls-4" d="M209,173.31l-.1-.2c-4.61-9.11-12.59-14.35-17.82-11.72l-.08.05,0,0-56.82,29,17,33.1,56.35-28.81.36-.16C213.15,191.94,213.65,182.42,209,173.31Z"/><path class="cls-6" d="M263.48,145.91a62.14,62.14,0,0,1,6.83,22.68L309,148.68A61.94,61.94,0,0,0,302.21,126c-10.12-19.69-27.5-30.95-38.82-25.12L224.68,120.8c11.29-5.82,28.67,5.42,38.8,25.11Z"/><path class="cls-7" d="M293.27,130.6a61.91,61.91,0,0,1,6.84,22.68l14.35-7.38a61.9,61.9,0,0,0-6.8-22.64c-10.13-19.69-27.51-30.95-38.82-25.12l-14.36,7.34C265.77,99.71,283.15,110.91,293.27,130.6Z"/><path class="cls-5" d="M133.18,211.89c4.7,9.14,12.77,14.36,18,11.66s5.71-12.3,1-21.44-12.77-14.36-18-11.66-5.7,12.3-1,21.44Z"/><path class="cls-8" d="M147.19,217.54c-2.32-.12-6.25-3-8.93-8.26-3.31-6.4-2.5-11.86-.9-12.66a1.56,1.56,0,0,1,.85-.15c2.32.11,6.24,3,8.93,8.26,3.31,6.43,2.47,11.86.9,12.66A1.56,1.56,0,0,1,147.19,217.54Z"/><path class="cls-7" d="M167,194.56c-4.71-9.14-12.77-14.36-18-11.66l-14.79,7.52c5.25-2.69,13.31,2.56,18,11.67s4.24,18.74-1.05,21.43L165.94,216C171.28,213.3,171.69,203.72,167,194.56Z"/></g></g></svg>